PathFileType	4	(X/Y/Z)	C:/Users/opensim2020/Desktop/walking_exp_matlab/subject03_walking13_straight_04.trc																																																																																																																																								
DataRate	CameraRate	NumFrames	NumMarkers	Units	OrigDataRate	OrigDataStartFrame	OrigNumFrames																																																																																																																																				
100	100	8	46	mm	100	2187	200																																																																																																																																				
Frame#	Time	LFHD			RFHD			LBHD			RBHD			C7			T10			CLAV			STRN			RBAK			LSHO			LUPA			LELB			LFRM			LWRA			LWRB			LFIN			RSHO			RUPA			RELB			RFRM			RWRA			RWRB			RFIN			LASI			RASI			LPSI			RPSI			LTHI			LKNE			LTIB			LANK			LHEE			LTOE			RTHI			RKNE			RTIB			RANK			RHEE			RTOE			*39			*40			*41			*42			*43			*44			*45		
		X1	Y1	Z1	X2	Y2	Z2	X3	Y3	Z3	X4	Y4	Z4	X5	Y5	Z5	X6	Y6	Z6	X7	Y7	Z7	X8	Y8	Z8	X9	Y9	Z9	X10	Y10	Z10	X11	Y11	Z11	X12	Y12	Z12	X13	Y13	Z13	X14	Y14	Z14	X15	Y15	Z15	X16	Y16	Z16	X17	Y17	Z17	X18	Y18	Z18	X19	Y19	Z19	X20	Y20	Z20	X21	Y21	Z21	X22	Y22	Z22	X23	Y23	Z23	X24	Y24	Z24	X25	Y25	Z25	X26	Y26	Z26	X27	Y27	Z27	X28	Y28	Z28	X29	Y29	Z29	X30	Y30	Z30	X31	Y31	Z31	X32	Y32	Z32	X33	Y33	Z33	X34	Y34	Z34	X35	Y35	Z35	X36	Y36	Z36	X37	Y37	Z37	X38	Y38	Z38	X39	Y39	Z39	X40	Y40	Z40	X41	Y41	Z41	X42	Y42	Z42	X43	Y43	Z43	X44	Y44	Z44	X45	Y45	Z45	X46	Y46	Z46
																																																																																																																																											
26	0.25	-1081.97827	1599.38977	-1469.89673	-1104.17493	1600.39343	-1338.87415	-1211.06555	1562.69421	-1488.57288	-1227.7644	1562.7312	-1358.37231	-1256.17932	1396.52429	-1439.18066	-1284.60791	1082.50867	-1446.27295	-1135.13953	1321.1748	-1425.02832	-1086.61719	1157.39368	-1433.4043	-1317.26904	1213.73792	-1360.00586	-1164.03833	1364.52478	-1581.93433	-1116.27625	1190.31372	-1673.27539	-1064.34741	1082.26624	-1700.72021	-978.62433	984.75787	-1702.42212	-903.46277	893.74323	-1672.96716	-921.76123	888.39771	-1724.53943	-862.17511	830.65869	-1716.95557	-1205.78345	1338.54651	-1272.37341	-1228.99915	1115.92322	-1204.323	-1225.36926	1003.90692	-1187.82813	-1232.4115	866.96991	-1180.00537	-1214.62561	765.508	-1205.51611	-1254.52832	768.5647	-1168.02576	-1245.93909	693.37518	-1174.00928	-1120.11682	921.22772	-1562.76318	-1123.0321	918.69	-1323.5647	-1282.06555	946.21704	-1509.27808	-1283.24512	944.78503	-1361.18689	-1228.49524	631.29858	-1605.14795	-1274.62183	458.44653	-1572.27661	-1380.55359	289.59729	-1584.54565	-1465.31323	93.63103	-1554.14441	-1514.75525	66.40612	-1520.46472	-1324.04529	34.84395	-1529.84729	-1120.3053	625.08533	-1271.88647	-1032.2373	468.86267	-1313.57813	-1005.50604	286.08398	-1309.93494	-938.01074	78.00111	-1352.18335	-962.70776	38.52546	-1410.02539	-789.26178	78.40122	-1358.65356	-1168.33301	1662.45581	-1433.71582	NaN	NaN	NaN	NaN	NaN	NaN	NaN	NaN	NaN	NaN	NaN	NaN	NaN	NaN	NaN	NaN	NaN	NaN
27	0.26	-1069.48535	1598.71704	-1469.96948	-1091.90625	1599.75916	-1338.96851	-1198.41504	1561.46606	-1488.84998	-1215.26062	1561.53833	-1358.61938	-1243.34558	1395.3927	-1438.64807	-1271.67749	1081.54492	-1445.63354	-1122.40466	1320.03784	-1424.98096	-1073.81738	1156.48999	-1433.32727	-1304.14807	1212.97632	-1359.13696	-1151.62305	1363.41418	-1581.57458	-1103.37781	1189.70923	-1672.65845	-1051.30249	1082.05896	-1700.30371	-962.99017	987.22668	-1701.05115	-885.03235	899.19116	-1670.1106	-903.06915	892.49622	-1721.59143	-841.42102	837.25525	-1713.29944	-1192.34668	1337.99939	-1272.04944	-1216.65198	1115.68298	-1203.77832	-1213.59924	1003.40808	-1187.51965	-1222.37415	866.67499	-1179.36536	-1205.81433	764.75525	-1204.89832	-1245.57739	768.48761	-1167.14111	-1238.66699	692.87134	-1173.38928	-1107.67834	920.02008	-1562.95667	-1109.40271	917.64722	-1323.73621	-1269.11768	945.23102	-1508.38403	-1269.78931	944.28064	-1360.2655	-1218.0144	630.88617	-1605.07263	-1265.6709	458.09756	-1572.63452	-1374.76379	291.15613	-1584.745	-1463.56238	97.15445	-1554.42554	-1513.42615	71.02942	-1520.67566	-1323.77441	34.61177	-1529.77039	-1108.25525	624.3042	-1271.15186	-1020.81171	467.84851	-1313.74072	-991.0658	286.0488	-1309.57788	-919.99127	78.56716	-1351.22986	-944.34918	38.21353	-1408.38245	-771.02533	82.0095	-1359.94482	-1156.20264	1661.28711	-1433.53101	NaN	NaN	NaN	NaN	NaN	NaN	NaN	NaN	NaN	NaN	NaN	NaN	NaN	NaN	NaN	NaN	NaN	NaN
28	0.27	-1056.95361	1598.22107	-1470.09937	-1079.50256	1599.37927	-1339.12	-1185.71753	1560.44788	-1489.00647	-1202.64294	1560.66028	-1358.81311	-1230.52686	1394.64929	-1438.14661	-1258.56384	1080.79138	-1445.11621	-1109.26831	1319.49634	-1424.78711	-1060.58447	1155.8656	-1433.04065	-1290.92212	1212.40198	-1358.12256	-1139.31677	1362.61194	-1581.23401	-1091.08386	1189.1261	-1672.25549	-1038.8186	1081.84888	-1699.89978	-948.0249	989.70972	-1699.52124	-867.43616	904.74677	-1667.11243	-885.13135	896.66473	-1718.49524	-821.56848	844.03833	-1709.5437	-1178.72766	1337.55371	-1271.59558	-1204.01294	1115.39563	-1203.22937	-1201.53784	1003.17194	-1187.04236	-1211.61133	866.52008	-1178.8335	-1196.79382	764.27545	-1204.79944	-1235.96313	768.61658	-1166.24109	-1230.55212	692.80444	-1173.02405	-1094.63794	919.01678	-1562.83252	-1095.65417	917.21027	-1323.66223	-1255.80432	944.42828	-1507.60803	-1256.23193	944.14838	-1359.56067	-1206.71533	630.41827	-1604.69592	-1256.01111	457.94986	-1573.13269	-1368.38892	293.05945	-1585.02063	-1461.26855	101.05769	-1554.86499	-1511.77966	76.34283	-1521.10156	-1323.47253	34.58607	-1529.78687	-1094.53113	624.34229	-1270.98438	-1008.58112	467.85901	-1313.87854	-977.57623	285.77011	-1309.1748	-905.26422	78.58022	-1350.86133	-930.21667	37.44219	-1407.51733	-756.67084	83.35429	-1361.63074	-1143.70154	1663.16357	-1432.07532	NaN	NaN	NaN	NaN	NaN	NaN	NaN	NaN	NaN	NaN	NaN	NaN	NaN	NaN	NaN	NaN	NaN	NaN
29	0.28	-1044.3562	1597.93713	-1470.17981	-1066.95544	1599.3656	-1339.22131	-1172.97729	1559.6344	-1489.11536	-1190.04272	1560.04565	-1358.97266	-1217.66223	1394.15942	-1437.55408	-1245.21667	1080.21094	-1444.78223	-1096.26001	1319.00513	-1424.47876	-1047.64954	1155.54016	-1432.61108	-1277.59973	1212.02124	-1357.05054	-1127.10608	1362.09436	-1580.88147	-1079.29712	1188.49902	-1671.97192	-1026.59192	1081.33118	-1699.10901	-933.76147	992.12231	-1697.83728	-850.72614	910.20087	-1663.99451	-868.15216	900.91394	-1715.30042	-802.68604	850.84802	-1705.67419	-1165.12781	1337.37573	-1271.13074	-1191.09119	1115.47595	-1202.62732	-1189.07178	1003.02252	-1186.58252	-1200.302	866.44025	-1178.14539	-1186.23157	764.0575	-1203.79919	-1225.38708	768.77338	-1165.38806	-1221.5144	692.80792	-1172.68127	-1081.17676	918.22559	-1562.46716	-1081.8175	917.29913	-1323.19312	-1242.07349	943.74463	-1506.90991	-1242.69739	944.22815	-1358.94495	-1194.92944	630.47461	-1604.91199	-1245.4408	457.7467	-1573.54626	-1361.41736	295.19791	-1585.35828	-1458.58813	105.42056	-1555.46985	-1509.69385	82.2922	-1521.75134	-1323.06445	34.51658	-1529.8114	-1079.29175	625.27472	-1271.823	-995.18811	468.56586	-1314.09045	-964.91333	285.33203	-1308.90417	-894.59326	77.57793	-1351.00037	-920.28918	36.06868	-1407.12341	-746.15491	81.88257	-1363.72095	-1131.38171	1662.65955	-1432.40503	NaN	NaN	NaN	NaN	NaN	NaN	NaN	NaN	NaN	NaN	NaN	NaN	NaN	NaN	NaN	NaN	NaN	NaN
30	0.29	-1031.79773	1597.86792	-1470.32568	-1054.42224	1599.44592	-1339.36731	-1160.25525	1558.97095	-1489.18127	-1177.34229	1559.69568	-1359.07922	-1204.69739	1393.89514	-1436.89832	-1231.7085	1079.79529	-1444.5116	-1082.95862	1318.83606	-1424.078	-1034.17053	1155.33936	-1431.97461	-1264.15955	1211.797	-1355.91687	-1114.81079	1361.76074	-1580.51062	-1067.95471	1187.83484	-1671.70422	-1015.2453	1081.2113	-1698.60657	-920.18982	994.52972	-1696.12769	-834.92218	915.54315	-1660.89478	-851.99231	905.05487	-1712.03809	-784.79364	857.67267	-1701.7937	-1151.52222	1337.3905	-1270.54395	-1177.68384	1115.37329	-1202.02942	-1176.3158	1003.01862	-1185.94409	-1188.38318	866.57654	-1177.49731	-1175.30334	763.89484	-1203.24231	-1214.09924	769.06677	-1164.51367	-1211.63477	692.84094	-1172.25281	-1067.16479	917.62274	-1561.77075	-1067.8208	917.84039	-1322.37622	-1228.01001	943.24054	-1506.36121	-1228.98718	944.41644	-1358.49402	-1182.23853	630.42944	-1604.60962	-1234.11279	457.93762	-1574.33411	-1353.52991	297.42807	-1586.04333	-1454.95483	109.54648	-1555.84204	-1506.93921	88.85999	-1522.6394	-1322.61292	34.41132	-1529.86572	-1063.83276	626.46002	-1272.61304	-981.2948	469.52536	-1314.55811	-953.20306	284.56451	-1308.97351	-887.36322	75.3871	-1351.40112	-914.31183	34.52752	-1407.09595	-739.02545	77.69367	-1366.05847	-1119.18701	1659.94055	-1435.0802	NaN	NaN	NaN	NaN	NaN	NaN	NaN	NaN	NaN	NaN	NaN	NaN	NaN	NaN	NaN	NaN	NaN	NaN
31	0.3	-1019.16437	1597.93311	-1470.40796	-1041.81482	1599.79688	-1339.47559	-1147.48804	1558.50964	-1489.16895	-1164.52881	1559.4519	-1359.02319	-1191.62146	1393.67261	-1436.07629	-1217.99878	1079.52869	-1444.12439	-1069.95935	1318.66577	-1423.63477	-1020.62097	1155.43237	-1431.30408	-1250.55798	1211.6803	-1354.79907	-1102.60059	1361.65442	-1580.12537	-1056.97498	1187.20825	-1671.45654	-1004.26392	1080.86938	-1697.901	-907.35596	996.78619	-1694.26196	-820.09802	920.91595	-1657.93201	-836.72021	908.9939	-1708.76257	-768.01947	864.40356	-1698.02136	-1137.71619	1337.48853	-1269.9408	-1163.96765	1115.5271	-1201.29358	-1163.04443	1003.17407	-1185.35779	-1175.87134	866.79651	-1176.85071	-1163.68384	763.93994	-1202.75867	-1202.09583	769.47345	-1163.49072	-1200.98315	693.12738	-1171.9696	-1052.66345	917.24524	-1560.7572	-1053.5929	918.6994	-1321.21399	-1213.55579	942.88367	-1505.89209	-1215.16089	944.52252	-1358.20203	-1168.81519	630.39417	-1604.38928	-1221.4502	457.73953	-1575.05566	-1344.88757	299.83261	-1586.62659	-1451.36267	115.37431	-1556.99402	-1503.53162	96.05295	-1523.46545	-1322.26953	34.15518	-1529.98694	-1047.85974	627.95081	-1273.25989	-966.58698	470.30911	-1314.76257	-942.51886	283.43881	-1309.24927	-882.28271	72.77287	-1352.38635	-911.67596	33.27853	-1407.46045	-734.89227	71.20696	-1368.74268	-1106.77966	1661.76074	-1433.34827	NaN	NaN	NaN	NaN	NaN	NaN	NaN	NaN	NaN	NaN	NaN	NaN	NaN	NaN	NaN	NaN	NaN	NaN
32	0.31	-1006.56067	1598.17725	-1470.54187	-1029.04944	1600.27795	-1339.58887	-1134.77661	1558.20044	-1489.14954	-1151.55078	1559.297	-1358.85535	-1178.56116	1393.56104	-1435.23193	-1203.93506	1079.31128	-1443.39966	-1056.68604	1318.85034	-1423.11145	-1006.79785	1155.79004	-1430.36121	-1236.78857	1211.55481	-1353.5946	-1090.39697	1361.6886	-1579.59375	-1046.20618	1186.62061	-1671.04346	-993.53448	1080.26074	-1696.97644	-895.19531	998.89038	-1692.43811	-805.89178	926.18561	-1655.16382	-822.40778	912.67108	-1705.55615	-752.15045	870.7832	-1694.23511	-1123.95789	1337.87097	-1269.18677	-1149.9978	1115.89343	-1200.40186	-1149.48962	1003.55396	-1184.57739	-1162.70398	867.17499	-1176.11792	-1151.17908	764.35815	-1202.32495	-1189.23584	769.94861	-1162.6665	-1189.29993	693.54926	-1171.6272	-1037.61865	917.03729	-1559.66907	-1039.14502	919.71362	-1320.0675	-1198.98279	942.71509	-1505.43823	-1201.11353	944.77252	-1357.88635	-1154.61255	630.3598	-1604.18115	-1207.80908	457.75623	-1576.18689	-1335.24524	302.30875	-1587.36157	-1446.69153	121.01282	-1557.58325	-1499.27307	103.93653	-1524.1228	-1321.7384	33.92554	-1530.03442	-1031.51697	629.48969	-1273.73633	-952.22937	470.80832	-1314.92395	-932.77637	282.17682	-1310.1864	-877.95056	71.02522	-1353.92627	-909.73547	34.37558	-1409.66553	-731.24536	59.77369	-1371.13574	NaN	NaN	NaN	NaN	NaN	NaN	NaN	NaN	NaN	NaN	NaN	NaN	NaN	NaN	NaN	NaN	NaN	NaN	NaN	NaN	NaN
33	0.32	-993.89825	1598.84204	-1470.7251	-1016.25848	1601.20569	-1339.65125	-1121.72131	1558.05481	-1488.59424	-1138.77759	1559.70532	-1358.82788	-1165.89478	1393.83777	-1434.37537	-1189.62854	1079.27698	-1442.38464	-1043.41492	1319.48804	-1422.47266	-992.95197	1156.95264	-1429.49756	-1222.927	1211.50671	-1352.3938	-1078.1543	1361.98499	-1579.06384	-1035.65808	1186.18176	-1670.54407	-983.27448	1079.81311	-1696.07886	-883.69165	1000.72736	-1690.61169	-792.76111	930.87073	-1652.33276	-809.04852	915.98663	-1702.39746	-737.31049	876.86719	-1690.63086	-1110.09106	1338.54565	-1268.22815	-1135.76917	1116.50183	-1199.35413	-1135.38367	1004.06427	-1183.82654	-1149.03271	867.72577	-1175.39429	-1138.24878	764.76929	-1201.90918	-1175.71448	770.57574	-1161.81897	-1176.70349	694.10577	-1171.29724	-1022.29034	917.06171	-1558.43616	-1024.68494	920.82574	-1318.72314	-1184.28296	942.77173	-1504.91821	-1186.63623	945.38257	-1357.4043	-1139.51245	630.19574	-1603.85913	-1192.7312	457.39029	-1577.12036	-1324.46301	304.96368	-1587.99695	-1441.01563	127.39016	-1558.3252	-1493.85132	112.71391	-1524.72046	-1321.02136	33.75744	-1529.95642	-1015.18573	631.75848	-1273.64941	-938.7782	471.60941	-1314.97778	-923.24487	282.01553	-1311.30225	-872.77881	70.72411	-1353.46582	-907.31201	36.28406	-1408.74475	-726.77283	50.87107	-1374.61328	-1081.84375	1662.14807	-1433.59656	NaN	NaN	NaN	NaN	NaN	NaN	NaN	NaN	NaN	NaN	NaN	NaN	NaN	NaN	NaN	NaN	NaN	NaN
